# xmcd
#
# Track frame offsets:
#        150
#        15591
#        27192
#        44334
#        66217
#        80105
#        99012
#        114202
#        129994
#        150405
#        161916
#        181852
#        202270
#
# Disc length: 2892 seconds
#
# Revision: 0
# Processed by: cddbd v1.5.1PL0 Copyright (c) Steve Scherf et al.
# Submitted via: ExactAudioCopy v0.95a4
#
DISCID=9e0b4a0d
DTITLE=GRIFFIN - COME AND HAVE ANOTHER GO...
DYEAR=2003
DGENRE=Rock
TTITLE0=TEENAGE
TTITLE1=YOUR NUFFIN'
TTITLE2=AVENUES AND ALLEYWAYS
TTITLE3=STAY COOL, BE TOUGH
TTITLE4=A STEP TOO FAR IN MY SHOES
TTITLE5=THE TIME HAS COME
TTITLE6=A MILLON SHORT
TTITLE7=FROM TIFFANY TO UNDERLOUNGE
TTITLE8=FLABBY BASTARD
TTITLE9=TASTER
TTITLE10=MR. STRAW
TTITLE11=THE LAUGHTER AND THE TEARS
TTITLE12=COME AND HAVE ANOTHER GO
EXTD=
EXTT0=
EXTT1=
EXTT2=
EXTT3=
EXTT4=
EXTT5=
EXTT6=
EXTT7=
EXTT8=
EXTT9=
EXTT10=
EXTT11=
EXTT12=
PLAYORDER=
